<?xml version="1.0" standalone="no"?><svg xmlns="http://www.w3.org/2000/svg" viewBox="0 0 1440 320"><path fill="#fd2c2d" fill-opacity="0.15" d="M0,96L40,122.7C80,149,160,203,240,202.7C320,203,400,149,480,149.3C560,149,640,203,720,229.3C800,256,880,256,960,240C1040,224,1120,192,1200,192C1280,192,1360,224,1400,240L1440,256L1440,320L1400,320C1360,320,1280,320,1200,320C1120,320,1040,320,960,320C880,320,800,320,720,320C640,320,560,320,480,320C400,320,320,320,240,320C160,320,80,320,40,320L0,320Z"></path></svg>